<svg xmlns="http://www.w3.org/2000/svg" version="1.1" xmlns:xlink="http://www.w3.org/1999/xlink" xmlns:svgjs="http://svgjs.dev/svgjs" width="200" height="192" viewBox="0 0 2000 1922"><g transform="matrix(1,0,0,1,-0.9867812239941713,0.7795745762151682)"><svg viewBox="0 0 257 247" data-background-color="#ffffff" preserveAspectRatio="xMidYMid meet" height="1922" width="2000" xmlns="http://www.w3.org/2000/svg" xmlns:xlink="http://www.w3.org/1999/xlink"><g id="tight-bounds" transform="matrix(1,0,0,1,0.1268013872832512,-0.09997365579206985)"><svg viewBox="0 0 256.7463972254335 247.2" height="247.2" width="256.7463972254335"><g><svg viewBox="0 0 256.7463972254335 247.2" height="247.2" width="256.7463972254335"><g><svg viewBox="0 0 256.7463972254335 247.2" height="247.2" width="256.7463972254335"><g id="textblocktransform"><svg viewBox="0 0 256.7463972254335 247.2" height="247.2" width="256.7463972254335" id="textblock"><g><svg viewBox="0 0 256.7463972254335 247.2" height="247.2" width="256.7463972254335"><path d="M256.145 53.02C254.938 27.36 251.498 20.227 251.498 20.227 240.937-6.202 227.756-0.506 215.915 3.292 195.01 3.446 174.189 9.091 153.331 12.119 109.553 12.581 65.4 4.986 21.839 23.717 17.747 29.464-4.245 24.846 0.728 56.304 2.031 69.39 6.787 83.913 6.642 95.922 7.294 98.026 8.199 93.202 8.586 96.23 9.937 104.39 12.146 100.541 13.957 105.365 11.434 118.246 13.245 128.971 14.971 140.21 11.929 143.135 8.03 141.749 6.28 151.449 6.099 158.479 5.121 157.145 4.047 156.837 3.263 156.632 1.681 157.402 1.947 159.608 2.852 167.152-1.034 171.514 1.404 178.904-0.274 186.91 2.562 193.838 2.176 202.511 2.128 204.255 2.394 205.744 2.816 206.154 4.687 208.361 1.959 212.672 2.249 217.342 21.44 249.262 42.261 227.195 61.924 241.872 67.029 231.608 63.191 245.516 65.231 243.36 66.824 240.846 67.983 251.263 69.781 245.362 70.059 243.668 69.637 239.665 70.626 240.435 71.145 240.846 71.604 240.743 71.676 238.382 71.785 234.841 70.832 237.048 70.578 235.201 73.318 225.861 72.642 248.081 75.213 247.158 75.092 244.438 74.344 240.538 75.877 241.051 77.398 237.151 77.446 233.918 78.798 242.693 78.846 244.592 79.088 245.926 79.474 246.85 83.698 237.305 87.899 250.237 92.329 245.926 95.044 241.205 97.652 248.492 100.404 246.696 101.369 245.259 102.347 242.693 103.276 247.004 114.658 247.928 126.789 244.079 137.58 247.158 166.415 241.41 197.231 249.518 227.635 241.923 234.805 238.998 242.253 234.841 249.241 231.506 249.241 231.506 254.902 222.371 254.902 181.316S256.109 145.393 256.29 112.703C256.471 80.013 257.316 78.679 256.109 53.02Z" opacity="1" fill="#ff0033" data-fill-palette-color="tertiary"></path><g transform="matrix(1,0,0,1,55.76831999999999,26.230666666666668)"><svg width="145.20975722543352" viewBox="2 -34 25.8 34.6" height="194.73866666666666" data-palette-color="#ffffff"><path d="M14.8 0.6L14.8 0.6Q12.05 0.6 9.45-0.25 6.85-1.1 4.88-2.85 2.9-4.6 2-7.3L2-7.3 6.35-8.6Q6.95-6.8 8.3-5.63 9.65-4.45 11.43-3.9 13.2-3.35 15-3.35L15-3.35Q17-3.35 18.8-4 20.6-4.65 21.73-5.98 22.85-7.3 22.85-9.3L22.85-9.3Q22.85-11.35 21.35-12.55 19.85-13.75 16.15-14.7L16.15-14.7 11.9-15.65Q9.6-16.25 7.38-17.25 5.15-18.25 3.73-20.1 2.3-21.95 2.3-25.05L2.3-25.05Q2.3-27.9 4.08-29.9 5.85-31.9 8.68-32.95 11.5-34 14.55-34L14.55-34Q16.9-34 19.18-33.33 21.45-32.65 23.28-31.28 25.1-29.9 26.15-27.75L26.15-27.75 21.85-26.5Q20.9-28.25 18.78-29.15 16.65-30.05 14.35-30.05L14.35-30.05Q12.55-30.05 10.9-29.48 9.25-28.9 8.2-27.75 7.15-26.6 7.15-24.85L7.15-24.85Q7.15-23.2 8.13-22.2 9.1-21.2 10.73-20.63 12.35-20.05 14.3-19.6L14.3-19.6 17.95-18.8Q20.5-18.2 22.75-17.15 25-16.1 26.4-14.2 27.8-12.3 27.8-9.1L27.8-9.1Q27.8-6.8 26.7-4.98 25.6-3.15 23.75-1.93 21.9-0.7 19.58-0.05 17.25 0.6 14.8 0.6Z" opacity="1" transform="matrix(1,0,0,1,0,0)" fill="#ffffff" class="wordmark-text-0" data-fill-palette-color="quaternary" id="text-0"></path></svg></g></svg></g></svg></g></svg></g><g></g></svg></g><defs></defs></svg><rect width="256.7463972254335" height="247.2" fill="none" stroke="none" visibility="hidden"></rect></g></svg></g></svg>